<?xml version="1.0" encoding="UTF-8"?>
<svg xmlns="http://www.w3.org/2000/svg" viewBox="0 0 36 38" width="72" height="76">
  <g transform="translate(-720, -298)">
    <path fill="#555F69" d="M756 329.05 L755.95 329.05 Q755.7 332.45 753.8 334.2 751.8 336 748 336 L728 336 Q724.2 336 722.25 334.2 720.25 332.45 720 329.05 L720 323.35 720.05 322.9 Q720.5 317 726 316.15 L726 316 Q725.15 316 724.55 315.45 724 314.85 724 314 L724 304 Q724 303.15 724.55 302.6 L728.55 298.6 Q729.15 298 730 298 L734 298 Q734.85 298 735.4 298.6 736 299.15 736 300 L736 306 740 306 740 300 Q740 299.15 740.55 298.6 741.15 298 742 298 L746 298 Q746.85 298 747.4 298.6 L751.4 302.6 Q752 303.15 752 304 L752 314 Q752 314.85 751.4 315.45 750.85 316 750 316 L750 316.15 Q755.5 317 755.95 322.9 L756 323.35 756 329.05 M726 311.9 L726 314 730 314 730 318 728 318 726 318.2 Q722.25 319.05 722 323.35 L722 327.35 722 329.05 Q722.55 334 728 334 L748 334 Q753.45 334 754 329.05 L754 327.35 754 323.35 Q753.75 319.05 750 318.2 L748 318 746 318 746 314 750 314 750 311.9 750 304 746 300 742 300 742 308 734 308 734 300 730 300 726 304 726 311.9"/>
    <path fill="#D8E1EC" d="M726 311.9 Q726.05 310.9 726.5 310.05 L727.2 309.15 Q728.35 308 730 308 L734 308 742 308 746 308 Q747.65 308 748.85 309.15 L749.5 310.05 Q749.95 310.9 750 311.9 L750 314 746 314 730 314 726 314 726 311.9 M722 327.35 Q722.25 323.05 726 322.2 L728 322 748 322 750 322.2 Q753.75 323.05 754 327.35 L754 329.05 Q753.45 334 748 334 L728 334 Q722.55 334 722 329.05 L722 327.35 M730 327 Q730 326.2 729.35 325.6 728.8 325 728 325 727.15 325 726.55 325.6 726 326.2 726 327 726 327.85 726.55 328.4 727.15 329 728 329 728.8 329 729.35 328.4 730 327.85 730 327 M750 327 Q750 326.2 749.35 325.6 748.8 325 748 325 747.15 325 746.55 325.6 746 326.2 746 327 746 327.85 746.55 328.4 747.15 329 748 329 748.8 329 749.35 328.4 750 327.85 750 327"/>
    <path fill="#B6BFC9" d="M750 327 Q750 327.85 749.35 328.4 748.8 329 748 329 747.15 329 746.55 328.4 746 327.85 746 327 746 326.2 746.55 325.6 747.15 325 748 325 748.8 325 749.35 325.6 750 326.2 750 327 M730 314 L746 314 746 318 730 318 730 314 M750 311.9 Q749.95 310.9 749.5 310.05 L748.85 309.15 Q747.65 308 746 308 L742 308 742 300 746 300 750 304 750 311.9 M734 308 L730 308 Q728.35 308 727.2 309.15 L726.5 310.05 Q726.05 310.9 726 311.9 L726 304 730 300 734 300 734 308 M730 327 Q730 327.85 729.35 328.4 728.8 329 728 329 727.15 329 726.55 328.4 726 327.85 726 327 726 326.2 726.55 325.6 727.15 325 728 325 728.8 325 729.35 325.6 730 326.2 730 327"/>
    <path fill="#E8EFF7" d="M722 327.35 L722 323.35 Q722.25 319.05 726 318.2 L728 318 730 318 746 318 748 318 750 318.2 Q753.75 319.05 754 323.35 L754 327.35 Q753.75 323.05 750 322.2 L748 322 728 322 726 322.2 Q722.25 323.05 722 327.35"/>
  </g>
</svg>
